<?xml version="1.0" encoding="utf-8"?>
<!-- Generator: Adobe Illustrator 18.0.0, SVG Export Plug-In . SVG Version: 6.00 Build 0)  -->
<!DOCTYPE svg PUBLIC "-//W3C//DTD SVG 1.1//EN" "http://www.w3.org/Graphics/SVG/1.1/DTD/svg11.dtd">
<svg version="1.1" id="Layer_1" xmlns="http://www.w3.org/2000/svg" xmlns:xlink="http://www.w3.org/1999/xlink" x="0px" y="0px"
	 viewBox="0 0 31 31.4" enable-background="new 0 0 31 31.4" xml:space="preserve">
<g id="XMLID_2287_">
	<path id="XMLID_2288_" fill="white" d="M15.5,1.8C7.9,1.8,1.7,8,1.7,15.7c0,7.7,6.2,13.9,13.9,13.9c7.7,0,13.9-6.2,13.9-13.9
		C29.4,8,23.2,1.8,15.5,1.8z M21.9,21.8c-0.3,0.4-0.8,0.6-1.2,0.3c-3.3-2-7.3-2.4-12.2-1.3c-0.5,0.1-0.9-0.2-1-0.6
		c-0.1-0.5,0.2-0.9,0.6-1c5.3-1.2,9.8-0.7,13.4,1.5C22,20.9,22.1,21.4,21.9,21.8z M23.6,18c-0.3,0.5-1,0.7-1.5,0.3
		c-3.7-2.3-9.4-3-13.8-1.6c-0.6,0.1-1.2-0.1-1.3-0.7c-0.1-0.6,0.1-1.2,0.7-1.3c5.1-1.5,11.3-0.8,15.6,1.9
		C23.7,16.8,23.9,17.5,23.6,18z M23.7,14.1c-4.4-2.6-11.9-2.9-16.1-1.6c-0.7,0.2-1.4-0.2-1.6-0.8c-0.2-0.7,0.2-1.4,0.8-1.6
		c4.9-1.5,13-1.2,18.2,1.9c0.6,0.3,0.8,1.2,0.5,1.8C25.2,14.3,24.3,14.5,23.7,14.1z"/>
</g>
</svg>
